/* XPM */
static const char * ERYA_xpm[] = {
"64 64 114 2",
"  	c None",
". 	c #FFFFFF",
"+ 	c #2D2D5A",
"@ 	c #363661",
"# 	c #4B4B72",
"$ 	c #7B7B97",
"% 	c #CFCFD9",
"& 	c #6F6F8D",
"* 	c #6D6D8C",
"= 	c #6C6C8B",
"- 	c #70708E",
"; 	c #E4E4E9",
"> 	c #2E2E5A",
", 	c #9393AA",
"' 	c #E9E9ED",
") 	c #383862",
"! 	c #BABAC8",
"~ 	c #B9B9C8",
"{ 	c #383863",
"] 	c #9292A9",
"^ 	c #F3F3F6",
"/ 	c #797996",
"( 	c #C0C0CD",
"_ 	c #A8A8BB",
": 	c #414169",
"< 	c #F1F1F4",
"[ 	c #404069",
"} 	c #A9A9BB",
"| 	c #FCFCFC",
"1 	c #42426A",
"2 	c #9696AC",
"3 	c #8787A0",
"4 	c #686888",
"5 	c #FEFEFE",
"6 	c #5D5D7F",
"7 	c #80809B",
"8 	c #7F7F9A",
"9 	c #5D5D80",
"0 	c #BFBFCC",
"a 	c #E3E3E9",
"b 	c #3C3C66",
"c 	c #DCDCE3",
"d 	c #31315D",
"e 	c #CBCBD6",
"f 	c #9E9EB2",
"g 	c #FAFAFB",
"h 	c #30305C",
"i 	c #9595AC",
"j 	c #4C4C72",
"k 	c #F8F8F9",
"l 	c #2E2E5B",
"m 	c #ECECF0",
"n 	c #2F2F5C",
"o 	c #E9E9EE",
"p 	c #E1E1E7",
"q 	c #F9F9FA",
"r 	c #4E4E74",
"s 	c #4F4F74",
"t 	c #9999AE",
"u 	c #70708F",
"v 	c #71718F",
"w 	c #9A9AB0",
"x 	c #83839E",
"y 	c #6A6A8A",
"z 	c #CDCDD8",
"A 	c #48486F",
"B 	c #C4C4D0",
"C 	c #C4C4D1",
"D 	c #F4F4F6",
"E 	c #777794",
"F 	c #C3C3CF",
"G 	c #82829D",
"H 	c #C6C6D2",
"I 	c #45456C",
"J 	c #FDFDFD",
"K 	c #46466E",
"L 	c #C7C7D3",
"M 	c #32325E",
"N 	c #A0A0B4",
"O 	c #F2F2F5",
"P 	c #737391",
"Q 	c #9898AE",
"R 	c #747492",
"S 	c #555579",
"T 	c #E8E8ED",
"U 	c #EEEEF1",
"V 	c #E7E7EC",
"W 	c #EEEEF2",
"X 	c #B3B3C3",
"Y 	c #4D4D73",
"Z 	c #535377",
"` 	c #A1A1B5",
" .	c #C1C1CE",
"..	c #3E3E67",
"+.	c #F7F7F9",
"@.	c #41416A",
"#.	c #FBFBFB",
"$.	c #CECED8",
"%.	c #57577B",
"&.	c #7A7A96",
"*.	c #9090A8",
"=.	c #8F8FA7",
"-.	c #B7B7C6",
";.	c #4A4A71",
">.	c #34345F",
",.	c #BCBCCA",
"'.	c #A8A8BA",
").	c #626284",
"!.	c #616182",
"~.	c #A6A6B9",
"{.	c #5C5C7F",
"].	c #545479",
"^.	c #B5B5C4",
"/.	c #B4B4C4",
". . . . . . . . . . . . . . . . . . . . . . . . . . . . . . . . . . . . . . . . . . . . . . . . . . . . . . . . . . . . . . . . ",
". . . . . . . . . . . . . . . . . . . . . . . . . . . . . . . . . . . . . . . . . . . . . . . . . . . . . . . . . . . . . . . . ",
". . . . . . . . . . . . . . . . . . . . . . . . . . . . . . . . . . . . . . . . . . . . . . . . . . . . . . . . . . . . . . . . ",
". . . . . . . . . . . . . . . . . . . . . . . . . . . . . . . . . . . . . . . . . . . . . . . . . . . . . . . . . . . . . . . . ",
". . . . . . . . . . . . . . . . . . . . . . . . . . . . . . . . . . . . . . . . . . . . . . . . . . . . . . . . . . . . . . . . ",
". . . . . . . . . . . . . . . . . . . . . . . . . . . . . . . . . . . . . . . . . . . . . . . . . . . . . . . . . . . . . . . . ",
". . . . . . . . . . . . . . . . . . . . . . . . . . . . . . . . . . . . . . . . . . . . . . . . . . . . . . . . . . . . . . . . ",
". . . . . . . . . . . . . . . . . . . . . . . . . . . . . . . . . . . . . . . . . . . . . . . . . . . . . . . . . . . . . . . . ",
". . . . . . . . . . . . . . . . . . . . . . . . . . . . . . . . . . . . . . . . . . . . . . . . . . . . . . . . . . . . . . . . ",
". . . . . . . . . . . . . . . . . . . . . . . . . . . . . . . . . . . . . . . . . . . . . . . . . . . . . . . . . . . . . . . . ",
". . . . . . . . . . . . . . . . . . . . . . . . . . . . . . . . . . . . . . . . . . . . . . . . . . . . . . . . . . . . . . . . ",
". . . . . . . . . . . . . . . . . . . . . . . . . . . . . . . . . . . . . . . . . . . . . . . . . . . . . . . . . . . . . . . . ",
". . . . . . . . . . . . . . . . . . . . . . . . . . . . . . . . . . . . . . . . . . . . . . . . . . . . . . . . . . . . . . . . ",
". . . . . . . . . . . . . . . . . . . . . . . . . . . . . . . . . . . . . . . . . . . . . . . . . . . . . . . . . . . . . . . . ",
". . . . . . . . . . . . . . . . . . . . . . . . . . . . . . . . . . . . . . . . . . . . . . . . . . . . . . . . . . . . . . . . ",
". . . . . . . . . . . . . . . . . . . . . . . . . . . . . . . . . . . . . . . . . . . . . . . . . . . . . . . . . . . . . . . . ",
". . . . . . . . . . . . . . . . . . . . . . . . . . . . . . . . . . . . . . . . . . . . . . . . . . . . . . . . . . . . . . . . ",
". . . . . . . . . . . . . . . . . . . . . . . . . . . . . . . . . . . . . . . . . . . . . . . . . . . . . . . . . . . . . . . . ",
". . . . . . . . . . . . . . . . . . . . . . . . . . . . . . . . . . . . . . . . . . . . . . . . . . . . . . . . . . . . . . . . ",
". . . . . . . . . . . . . . . . . . . . . . . . . . . . . . . . . . . . . . . . . . . . . . . . . . . . . . . . . . . . . . . . ",
". . . . . . . . . . . . . . . . . . . . . . . . . . . . . . . . . . . . . . . . . . . . . . . . . . . . . . . . . . . . . . . . ",
". . . . . . . . . . . . . . . . . . . . . . . . . . . . . . . . . . . . . . . . . . . . . . . . . . . . . . . . . . . . . . . . ",
". . . . . . . . . . . . . . . . . . . . . . . . . . . . . . . . . . . . . . . . . . . . . . . . . . . . . . . . . . . . . . . . ",
". . . . . + + + + + + + + + + + + . . . . + + + + + + @ # $ % . . . & + * . . . . . . . . = + - . . . . . ; + + > ; . . . . . . ",
". . . . . + + + + + + + + + + + + . . . . + + + + + + + + + + , . . ' ) + ! . . . . . . ~ + { ' . . . . . ] + > + , . . . . . . ",
". . . . . + + . . . . . . . . . . . . . . + + . . . . ^ % / + + ( . . _ + : < . . . . < [ + } . . . . . | 1 + 2 + 1 | . . . . . ",
". . . . . + + . . . . . . . . . . . . . . + + . . . . . . . 3 + 4 . . 5 6 + 7 . . . . 8 + 9 5 . . . . . 0 + # 5 # + ( . . . . . ",
". . . . . + + . . . . . . . . . . . . . . + + . . . . . . . a + b . . . c d + e . . e + d c . . . . . . = + f . f + * . . . . . ",
". . . . . + + . . . . . . . . . . . . . . + + . . . . . . . g + h . . . . i + j k k j + 2 . . . . . . ' l h m . m h n o . . . . ",
". . . . . + + . . . . . . . . . . . . . . + + . . . . . . . p + : . . . . q r + , ] + s q . . . . . . t + u . . . v + w . . . . ",
". . . . . + + + + + + + + + + + . . . . . + + . . . . . . . x + y . . . . . z + h h + z . . . . . . 5 A + B . . . C + A 5 . . . ",
". . . . . + + + + + + + + + + + . . . . . + + . . . . D % E + + F . . . . . . G + + x . . . . . . . H + I J . . . 5 K + L . . . ",
". . . . . + + . . . . . . . . . . . . . . + + + + + + + + + M N . . . . . . . O + + O . . . . . . . P + 2 . . . . . Q + R . . . ",
". . . . . + + . . . . . . . . . . . . . . + + + + + + + + + S T . . . . . . . . + + . . . . . . . U d > V . . . . . ' l M W . . ",
". . . . . + + . . . . . . . . . . . . . . + + . . . g T X Y + Z g . . . . . . . + + . . . . . . . N + + + + + + + + + + + ` . . ",
". . . . . + + . . . . . . . . . . . . . . + + . . . . . . W K + N . . . . . . . + + . . . . . . . r + + + + + + + + + + + s . . ",
". . . . . + + . . . . . . . . . . . . . . + + . . . . . . .  .+ ..+.. . . . . . + + . . . . . . z + @.| . . . . . . . #.: + $.. ",
". . . . . + + . . . . . . . . . . . . . . + + . . . . . . . . %.+ } . . . . . . + + . . . . . . &.+ *.. . . . . . . . . =.+ $ . ",
". . . . . + + . . . . . . . . . . . . . . + + . . . . . . . . -.+ ;.J . . . . . + + . . . . . O >.+ p . . . . . . . . . p + >.O ",
". . . . . + + + + + + + + + + + + . . . . + + . . . . . . . . | A + ,.. . . . . + + . . . . . '.+ ).. . . . . . . . . . . !.+ _ ",
". . . . . + + + + + + + + + + + + . . . . + + . . . . . . . . . ~.+ {.. . . . . + + . . . . . ].+ ^.. . . . . . . . . . . /.+ S ",
". . . . . . . . . . . . . . . . . . . . . . . . . . . . . . . . . . . . . . . . . . . . . . . . . . . . . . . . . . . . . . . . ",
". . . . . . . . . . . . . . . . . . . . . . . . . . . . . . . . . . . . . . . . . . . . . . . . . . . . . . . . . . . . . . . . ",
". . . . . . . . . . . . . . . . . . . . . . . . . . . . . . . . . . . . . . . . . . . . . . . . . . . . . . . . . . . . . . . . ",
". . . . . . . . . . . . . . . . . . . . . . . . . . . . . . . . . . . . . . . . . . . . . . . . . . . . . . . . . . . . . . . . ",
". . . . . . . . . . . . . . . . . . . . . . . . . . . . . . . . . . . . . . . . . . . . . . . . . . . . . . . . . . . . . . . . ",
". . . . . . . . . . . . . . . . . . . . . . . . . . . . . . . . . . . . . . . . . . . . . . . . . . . . . . . . . . . . . . . . ",
". . . . . . . . . . . . . . . . . . . . . . . . . . . . . . . . . . . . . . . . . . . . . . . . . . . . . . . . . . . . . . . . ",
". . . . . . . . . . . . . . . . . . . . . . . . . . . . . . . . . . . . . . . . . . . . . . . . . . . . . . . . . . . . . . . . ",
". . . . . . . . . . . . . . . . . . . . . . . . . . . . . . . . . . . . . . . . . . . . . . . . . . . . . . . . . . . . . . . . ",
". . . . . . . . . . . . . . . . . . . . . . . . . . . . . . . . . . . . . . . . . . . . . . . . . . . . . . . . . . . . . . . . ",
". . . . . . . . . . . . . . . . . . . . . . . . . . . . . . . . . . . . . . . . . . . . . . . . . . . . . . . . . . . . . . . . ",
". . . . . . . . . . . . . . . . . . . . . . . . . . . . . . . . . . . . . . . . . . . . . . . . . . . . . . . . . . . . . . . . ",
". . . . . . . . . . . . . . . . . . . . . . . . . . . . . . . . . . . . . . . . . . . . . . . . . . . . . . . . . . . . . . . . ",
". . . . . . . . . . . . . . . . . . . . . . . . . . . . . . . . . . . . . . . . . . . . . . . . . . . . . . . . . . . . . . . . ",
". . . . . . . . . . . . . . . . . . . . . . . . . . . . . . . . . . . . . . . . . . . . . . . . . . . . . . . . . . . . . . . . ",
". . . . . . . . . . . . . . . . . . . . . . . . . . . . . . . . . . . . . . . . . . . . . . . . . . . . . . . . . . . . . . . . ",
". . . . . . . . . . . . . . . . . . . . . . . . . . . . . . . . . . . . . . . . . . . . . . . . . . . . . . . . . . . . . . . . ",
". . . . . . . . . . . . . . . . . . . . . . . . . . . . . . . . . . . . . . . . . . . . . . . . . . . . . . . . . . . . . . . . ",
". . . . . . . . . . . . . . . . . . . . . . . . . . . . . . . . . . . . . . . . . . . . . . . . . . . . . . . . . . . . . . . . ",
". . . . . . . . . . . . . . . . . . . . . . . . . . . . . . . . . . . . . . . . . . . . . . . . . . . . . . . . . . . . . . . . ",
". . . . . . . . . . . . . . . . . . . . . . . . . . . . . . . . . . . . . . . . . . . . . . . . . . . . . . . . . . . . . . . . ",
". . . . . . . . . . . . . . . . . . . . . . . . . . . . . . . . . . . . . . . . . . . . . . . . . . . . . . . . . . . . . . . . ",
". . . . . . . . . . . . . . . . . . . . . . . . . . . . . . . . . . . . . . . . . . . . . . . . . . . . . . . . . . . . . . . . "};
