/* XPM */
static const char * ERYA_xpm[] = {
"105 55 433 2",
"  	c None",
". 	c #FFFFFF",
"+ 	c #FDFDFD",
"@ 	c #FDFDFF",
"# 	c #FCFCFF",
"$ 	c #FDFDFC",
"% 	c #FCFCFC",
"& 	c #FAFAFA",
"* 	c #F2F2F3",
"= 	c #F5F5F5",
"- 	c #FCFCFD",
"; 	c #EEEEEE",
"> 	c #FBFBFC",
", 	c #F7F7F7",
"' 	c #F6F6F6",
") 	c #F3F3F3",
"! 	c #BEBEBE",
"~ 	c #B2B2B2",
"{ 	c #B3B3B4",
"] 	c #B3B3B3",
"^ 	c #B1B1B2",
"/ 	c #B4B4B4",
"( 	c #E1E1E1",
"_ 	c #FEFEFE",
": 	c #E3E3E4",
"< 	c #B5B5B6",
"[ 	c #B2B2B3",
"} 	c #B1B1B3",
"| 	c #BFBFC0",
"1 	c #D4D4D3",
"2 	c #E8E8E7",
"3 	c #FDFDFE",
"4 	c #F2F2F4",
"5 	c #C7C7C9",
"6 	c #969698",
"7 	c #7E7E7F",
"8 	c #858586",
"9 	c #A8A8AA",
"0 	c #DBDBDC",
"a 	c #DDDDDD",
"b 	c #838384",
"c 	c #9C9C9D",
"d 	c #CECECF",
"e 	c #EFEFF0",
"f 	c #979797",
"g 	c #8D8D8D",
"h 	c #8E8E8F",
"i 	c #C5C5C7",
"j 	c #E3E3E3",
"k 	c #626262",
"l 	c #414141",
"m 	c #414143",
"n 	c #414142",
"o 	c #474748",
"p 	c #BABABB",
"q 	c #4A4A4C",
"r 	c #404042",
"s 	c #464648",
"t 	c #4F4F50",
"u 	c #656565",
"v 	c #919191",
"w 	c #CBCBCB",
"x 	c #8F8F91",
"y 	c #4F4F51",
"z 	c #3A3A3C",
"A 	c #39393B",
"B 	c #3E3E40",
"C 	c #656567",
"D 	c #B4B4B5",
"E 	c #F7F7F9",
"F 	c #C4C4C4",
"G 	c #444444",
"H 	c #3B3B3D",
"I 	c #505052",
"J 	c #777779",
"K 	c #ABABAC",
"L 	c #DBDBDB",
"M 	c #F9F9F9",
"N 	c #FBFBFB",
"O 	c #A5A5A5",
"P 	c #3E3E3E",
"Q 	c #39393A",
"R 	c #7C7C7D",
"S 	c #F2F2F2",
"T 	c #5A5A5A",
"U 	c #393939",
"V 	c #B2B2B4",
"W 	c #B8B8B9",
"X 	c #424244",
"Y 	c #38383A",
"Z 	c #535354",
"` 	c #959595",
" .	c #818181",
"..	c #3D3D3E",
"+.	c #B0B0B2",
"@.	c #A7A7A7",
"#.	c #3F3F40",
"$.	c #616161",
"%.	c #CFCFCF",
"&.	c #707070",
"*.	c #4D4D4E",
"=.	c #CDCDCD",
"-.	c #5B5B5B",
";.	c #3F3F41",
">.	c #FEFEFF",
",.	c #808080",
"'.	c #E0E0E0",
").	c #ECECED",
"!.	c #8A8A8C",
"~.	c #5F5F61",
"{.	c #D5D5D5",
"].	c #8A8A8A",
"^.	c #3A3A3A",
"/.	c #5D5D5D",
"(.	c #C3C3C3",
"_.	c #484848",
":.	c #3C3C3E",
"<.	c #989898",
"[.	c #E4E4E4",
"}.	c #474749",
"|.	c #454547",
"1.	c #434345",
"2.	c #A4A4A5",
"3.	c #939393",
"4.	c #6E6E6E",
"5.	c #3A3A3B",
"6.	c #3B3B3C",
"7.	c #909090",
"8.	c #F8F8F8",
"9.	c #3B3B3B",
"0.	c #E2E2E2",
"a.	c #616162",
"b.	c #AAAAAA",
"c.	c #AEAEAF",
"d.	c #AEAEAE",
"e.	c #B0B0B1",
"f.	c #838383",
"g.	c #C3C3C4",
"h.	c #C2C2C3",
"i.	c #C2C2C2",
"j.	c #B6B6B7",
"k.	c #9D9D9E",
"l.	c #787879",
"m.	c #4B4B4D",
"n.	c #CDCDCE",
"o.	c #58585A",
"p.	c #828284",
"q.	c #717172",
"r.	c #DEDEDE",
"s.	c #D9D9D9",
"t.	c #535353",
"u.	c #484849",
"v.	c #C5C5C5",
"w.	c #5E5E5F",
"x.	c #424243",
"y.	c #7B7B7C",
"z.	c #A1A1A1",
"A.	c #F0F0F0",
"B.	c #5D5D5F",
"C.	c #38383B",
"D.	c #39383C",
"E.	c #757577",
"F.	c #EFEFEF",
"G.	c #F1F1F2",
"H.	c #868688",
"I.	c #464549",
"J.	c #989899",
"K.	c #E1E1E2",
"L.	c #EDEDED",
"M.	c #ADADAD",
"N.	c #585859",
"O.	c #404040",
"P.	c #B0B0B0",
"Q.	c #BBBBBB",
"R.	c #434343",
"S.	c #39393C",
"T.	c #767676",
"U.	c #7C7C7C",
"V.	c #F1F1F1",
"W.	c #5B5B5C",
"X.	c #7B7B7D",
"Y.	c #A2A2A2",
"Z.	c #4E4E50",
"`.	c #CFCFD0",
" +	c #BDBDBE",
".+	c #49494B",
"++	c #3F3F42",
"@+	c #979798",
"#+	c #BABABA",
"$+	c #555555",
"%+	c #818183",
"&+	c #F5F5F6",
"*+	c #959597",
"=+	c #404041",
"-+	c #ABABAB",
";+	c #CCCCCD",
">+	c #5B5B5D",
",+	c #A2A2A3",
"'+	c #ECECEC",
")+	c #737373",
"!+	c #7D7D7F",
"~+	c #EAEAEB",
"{+	c #9E9E9E",
"]+	c #5C5C5E",
"^+	c #EDEDEE",
"/+	c #6D6D6F",
"(+	c #646465",
"_+	c #D0D0D0",
":+	c #515152",
"<+	c #FAFAFB",
"[+	c #9B9B9C",
"}+	c #9E9EA0",
"|+	c #636365",
"1+	c #D3D3D5",
"2+	c #DFDFDF",
"3+	c #606060",
"4+	c #444446",
"5+	c #C5C5C6",
"6+	c #D1D1D3",
"7+	c #39383B",
"8+	c #9D9D9F",
"9+	c #909092",
"0+	c #545456",
"a+	c #636364",
"b+	c #E2E2E3",
"c+	c #959596",
"d+	c #BEBEBF",
"e+	c #ACACAE",
"f+	c #969697",
"g+	c #3C3C3D",
"h+	c #A3A3A5",
"i+	c #A3A3A4",
"j+	c #D6D6D6",
"k+	c #E8E8E9",
"l+	c #6C6C6E",
"m+	c #626264",
"n+	c #DADADC",
"o+	c #838385",
"p+	c #A9A9A9",
"q+	c #3D3D3F",
"r+	c #999999",
"s+	c #A6A6A7",
"t+	c #8B8B8B",
"u+	c #C8C8C8",
"v+	c #49494A",
"w+	c #808081",
"x+	c #F7F7F8",
"y+	c #727274",
"z+	c #8F8F90",
"A+	c #C1C1C2",
"B+	c #939395",
"C+	c #F9F9FA",
"D+	c #3E3E3F",
"E+	c #EAEAEA",
"F+	c #E8E8E8",
"G+	c #EBEBEC",
"H+	c #CECECE",
"I+	c #4D4D4F",
"J+	c #525254",
"K+	c #CBCBCC",
"L+	c #F6F6F7",
"M+	c #8B8B8D",
"N+	c #48484A",
"O+	c #E9E9EA",
"P+	c #68686A",
"Q+	c #505051",
"R+	c #464647",
"S+	c #878788",
"T+	c #D8D8D9",
"U+	c #8B8B8C",
"V+	c #DEDEDF",
"W+	c #5A5A5D",
"X+	c #383839",
"Y+	c #6D6D6E",
"Z+	c #A0A0A1",
"`+	c #5F5F60",
" @	c #CACACA",
".@	c #3F3E41",
"+@	c #3D3D3D",
"@@	c #D3D3D3",
"#@	c #666666",
"$@	c #E6E6E6",
"%@	c #7A7A7B",
"&@	c #A0A0A0",
"*@	c #D0D0D1",
"=@	c #8D8D8F",
"-@	c #C6C6C6",
";@	c #ADADAE",
">@	c #909091",
",@	c #F0F0F1",
"'@	c #767678",
")@	c #D4D4D5",
"!@	c #848484",
"~@	c #7B7B7B",
"{@	c #676769",
"]@	c #8C8C8D",
"^@	c #6F6F70",
"/@	c #646464",
"(@	c #D7D7D7",
"_@	c #535355",
":@	c #949496",
"<@	c #727273",
"[@	c #5A5A5B",
"}@	c #D4D4D4",
"|@	c #CACACB",
"1@	c #F3F3F4",
"2@	c #434344",
"3@	c #7F7F81",
"4@	c #626263",
"5@	c #EBEBEB",
"6@	c #59595A",
"7@	c #BCBCBD",
"8@	c #666667",
"9@	c #7F7F80",
"0@	c #69696B",
"a@	c #BABABC",
"b@	c #6E6E6F",
"c@	c #727272",
"d@	c #6A6A6C",
"e@	c #DFDFE0",
"f@	c #5E5E5E",
"g@	c #9A9A9C",
"h@	c #737375",
"i@	c #DADADB",
"j@	c #FBFBFD",
"k@	c #5E5E60",
"l@	c #ACACAC",
"m@	c #B8B8B8",
"n@	c #89898A",
"o@	c #D3D3D4",
"p@	c #E5E5E5",
"q@	c #565658",
"r@	c #555557",
"s@	c #7A7A7C",
"t@	c #4C4C4E",
"u@	c #5A5A5C",
"v@	c #B9B9BB",
"w@	c #A1A1A2",
"x@	c #B6B6B6",
"y@	c #878789",
"z@	c #828282",
"A@	c #7D7D7E",
"B@	c #B7B7B7",
"C@	c #707072",
"D@	c #D5D5D6",
"E@	c #DDDDDE",
"F@	c #DCDCDD",
"G@	c #CBCBCD",
"H@	c #59595B",
"I@	c #616163",
"J@	c #FDFDFB",
"K@	c #FCFCFB",
"L@	c #545454",
"M@	c #8C8C8C",
"N@	c #7E7E7E",
"O@	c #686869",
"P@	c #C1C1C3",
"Q@	c #A4A4A4",
"R@	c #3C3C3C",
"S@	c #525252",
"T@	c #D2D2D2",
"U@	c #B9B9B9",
"V@	c #929293",
"W@	c #F4F4F5",
"X@	c #FEFEFD",
"Y@	c #717171",
"Z@	c #3A393C",
"`@	c #797979",
" #	c #E6E6E7",
".#	c #646466",
"+#	c #E0E0E1",
"@#	c #555556",
"##	c #919192",
"$#	c #B9B9BA",
"%#	c #DCDCDC",
"&#	c #696969",
"*#	c #BCBCBC",
"=#	c #E4E4E5",
"-#	c #606062",
";#	c #C4C4C6",
">#	c #D2D2D4",
",#	c #A9A9AA",
"'#	c #848485",
")#	c #C9C9CA",
"!#	c #D7D7D8",
"~#	c #707071",
"{#	c #444445",
"]#	c #B1B1B1",
"^#	c #6E6E70",
"/#	c #79797B",
"(#	c #828283",
"_#	c #818182",
":#	c #9C9C9E",
"<#	c #C0C0C1",
"[#	c #676767",
"}#	c #4E4E4F",
"|#	c #DADADA",
"1#	c #585858",
"2#	c #666668",
"3#	c #777777",
"4#	c #F7F7F6",
"5#	c #3D3C3E",
"6#	c #39383D",
"7#	c #FFFFFE",
"8#	c #B7B7B8",
"9#	c #777778",
"0#	c #E5E5E6",
"a#	c #E7E7E7",
"b#	c #C1C1C1",
"c#	c #434245",
"d#	c #5F5F5F",
"e#	c #C6C6C7",
"f#	c #BFBFBF",
"g#	c #868686",
"h#	c #656566",
"i#	c #6C6C6D",
"j#	c #898989",
"k#	c #A1A1A3",
"l#	c #BDBDBD",
"m#	c #C9C9C9",
"n#	c #E9E9E9",
"o#	c #3F3F3F",
"p#	c #888888",
"q#	c #6D6D6D",
"r#	c #757576",
"s#	c #929292",
"t#	c #D2D2D3",
"u#	c #EEEEEF",
"v#	c #EDEDEF",
"w#	c #E0E0E2",
"x#	c #EFEFF1",
"y#	c #FEFEFC",
"z#	c #F4F4F4",
". + + + . . . . . . . . . . . . . . + + + + . . . @ @ @ # . . . . . . . $ $ % % + + % @ . . . . + + + + + & * = - + + - - + . . . . . . . + + % ; > @ @ + + + + + + % , ' , % @ . . . . . . . . . . . . . . . . . ",
". ) ! ~ { { { ] ] ] ] ] ] ] ] ] ] ] ^ / ( + _ . _ : < [ } [ ] ] ] ~ ] | 1 2 , + + + % 3 _ . . + % + + 4 5 6 7 8 9 0 - 3 + _ _ . . . . . _ + + a b c d e - + + + + + ( f g h i + _ _ _ . . . . . . . . . . . . . . ",
". j k l m m m m m m m m m m m m m m n o < 3 _ . _ p q r m m m m n n n s t u v w ' + % + _ . _ _ + + j x y z A A B C D E + _ . . . . . . _ + + F G H I J K L M + % N O P Q z R S _ _ _ _ . . . . . . . . . . . . . ",
". j T U A A A z z z z z z z z z z A A r V @ . . _ W X Y A A A A A A A A Y Y z Z ` j + _ _ _ _ + + j  ...A Y A A A A y +.N + _ . . . . . . _ % @.P A A A #.$.%.+ + ; &.Q A Y *.=.+ _ _ _ . . . . . . . . . . . . . ",
". j -.Q Y A A A z z z z z z z z z A A ;.V 3 >.. _ W X A A Y A Y Y Y A A A Y Y Q ..,.'.+ + + + % ).!.H Y Y A A A A A A ~.{.+ _ . . . . . . _ M ].^.A A A Q /.'._ + (._.Q A A :.<.& + + _ . . . . . . . . . . . . . ",
". [.-.Q Y A z m m m m m m m m m m m m }.< >.>.. _ W X z A A r |.|.|.1.B A A A Y Y ..!.e + + % M 2.1.A A A Y A A A A A H 3.M _ . . . . . . + ; 4.U 5.z 5.6.7.8.+ 8.v 9.Q z z A $.0.+ + _ . . . . . . . . . . . . . ",
". [.-.Q A z a.b.c.c.c.c.c.c.c.c.c.c.d.e.'._ . . _ W X z Y Q f.g.h.i.j.k.l.m.A A A Y |.[ % + % n.o.A A B C p.q.}.A A Q Q /.r._ . . . . . _ + s.t.Q A z z u.v.+ + '.w.Q A A z 5.x.] % _ _ . . . . . . . . . . . . . ",
". [.-.Q A z y.= + + + + + + + + + % % % + _ _ . _ W X z A ^.z.+ % + + % A.j.B.A C.C.D.E.F.+ G.H.z C.I.J.K.M L.M.N.Q Q Y O.P.3 _ _ . . . _ + Q.R.Q S.A z T.F.+ + { x.Y A A A A Q U.V._ _ . . . . . . . . . . . . . ",
". [.W.A A z X., . . . . . . . . . _ _ _ _ _ _ . _ W X z A 5.Y._ . _ . _ + N ] _.A S.S.Z.`.-  +.+Y ++@+V._ _ _ & #+$+U Y 5.%+&+3 _ _ . . . > *+5.A D.A =+-+% _ ) X.A A Y A A A A t ;+3 _ . . . . . . . . . . . . . ",
". [.>+z z z R , . . . . . . . . . . . . . . . . _ W X z A z ,+. . . . _ + + '+)+5.z z m { e !+A H b ~+>.. . _ + 8.{+P Y A ]+: 3 + _ . . >.^+/+A S.D.A (+( + + _+:+A A A q H A A H J.<+_ . . . . . . . . . . . . . ",
". [.>+z z z R , . . . . . . . . . . . . . . . . _ W X z A z ,+. . . . _ _ + N [+6.z z :.}+h.q A |+1+3 >.. . _ + + 2+3+Y Y 4+5+3 + _ . . _ 6+y A A 7+H c N + N 8+H Y A 4+9+0+A Y A a+b+_ . . . . . . . . . . . . . ",
". [.>+z z z R , . . . . . . . . . . . . . . . . _ W X z A z ,+. . . . _ + + + P.=+z z A c+d+m.1.e+<+3 >.. . _ + + M f+g+A :.h+> _ _ _ _ + i+:.A Y A o.j++ + k+l+Y A A m+n+o+z Y A X < _ _ _ _ . . . . . . . . . . ",
". [.>+z z z R , . . . . . . . . . . . . . . . . _ W X z A z ,+. . . . . _ + _ p+q+z z Q r+' s+t+L._ 3 _ . . . _ _ _ u+v+Y A w+x++ + + + F.y+A A Y z z+M + + A+s Y A H B+C+ +|.A A A y.S + + + _ . . . . . . . . . ",
". [.>+z z z R , . . . . . . . . . . . . . . . . _ W X z A z ,+. . . . _ + + , t+z z z D+p++ , E++ _ + _ . . . . . _ F+C A A C G++ + + % H+I+A Y A J+K++ + L+M+z A A N+5+_ O+P+Y A A Q+%.+ + _ _ . . . . . . . . . ",
". [.>+z z z R , . . . . . . . . . . . . . . . . _ W X z A z ,+. . . . _ + + L 3+A z z R+(.% + + + + + _ . . . . . . , S+A Y I T+_ + + M <.g+A Y 5.U+' + + V+W+7+Q X+Y+L._ <+Z+:.A Y H J.& + _ . . . . . . . . . . ",
". [.>+z A z X., . . . . . . . . . . . _ _ _ . . _ W X z A z ,+_ _ . _ . _ ; z+g+A A 5.`+( + + + + % + _ . . . . . . + 9 q+Y 1.5++ + + j u Q A A :+ @% % N K .@D.Q +@z.N + + @@:+A A A #@$@+ _ _ . . . . . . . . . ",
". [.>+A A z %@S & & & & & & & & & & M M + _ _ . _ W X z A 5.&@& & & M A.*@=@X Y A A g+<.M _ _ _ _ _ _ . . . . . . . _ -@s A B ;@> + % M.=+A A 6.>@' + 3 ,@'@A A Q I )@3 _ _ = !@z z Y X < + _ . . . . . . . . . . ",
". [.>+A A A I+~@U.U.U.U.U.U.U.U.U.U.~@<.; + _ . _ W X z A Q {@>@9+]@7 ^@Z H A A A Q /@(@_ . . . . . . . . . . . . _ + r._@A :.:@& % '+<@Q Y A [@}@+ + + |@m.A Q ^.7 1@3 _ . _ #+2@A A z 3@1@+ . . . . . . . . . . ",
". [.>+A A A A A 5.5.5.5.5.5.5.5.5.Q Y 4@5@+ _ . _ W X z A Y z H :.H Y Y Y A A Y A 6@7@+ _ . . . . . . . . . . . . _ + '+8@A A 9@' % / 4+A A q+c & + + M @+H Y A O.P.+ _ _ . _ E+0@A A Y Z.d 3 _ . . . . . . . . . ",
". [.>+A A A A A z z z z z z z z z A A m+G+_ _ . _ W X z A Y Y A Y A Y A A A A :.P+a@N _ _ . . . . . . . . . . . . . + 1@X.A A b@; F+c@Q Y A d@e@+ + + [.a+A Y Y f@2+_ _ . . _ N k.:.A Y :.g@& _ _ . . . . . . . . ",
". [.>+A A Y A A z z z z z z z z z z A m+G+_ >.. _ W X z A A A A A A A Y A A :.h@i@j@_ _ _ . . . . . . . . . . . . _ _ % >@A z k@[.l@x.Y Y }.] % + + % m@2@A A A n@, + 3 . . . _ o@J+A Y A C p@+ _ _ _ . . . . . . ",
". [.>+A A A m q@q@q@q@q@q@q@q@q@q@q@r@s@G+3 >.. _ W X z A A 4+t@m.m z Y A A A u@v@<++ _ . . . . . . . . . . . . . _ _ + w@:.Y Q+x@4@Q Y z y@V.+ $ + = z@Q A A |.7@<+N > % % % N ,@A@A A A 2@B@+ + _ _ . . . . . . ",
". [.>+A A A C@D@E@E@E@E@E@E@E@E@E@a F@K.N 3 _ . _ W X z A A H.G@5 D S+t@A Y Y A H@d++ _ . . . . . . . . . . . . . . _ + ^ r A n u 5.Y Y I@)@% J@K@+ j+L@Q A A 1.9@U+U+U+U+U+M@t+U+m+z A A Q N@) + + _ . . . . . . ",
". [.>+A A z s@L+. . . . . . . . . . _ + + + _ . _ W X z A A w@+ 3 _ ) ~ N.A A A A O@(@_ _ . _ . . . . . . . . . . . _ 3 P@4+A Y 9.Q A N+e.- + K@J@K@Q@R@Q A A A A Y Y Y A A A Q Y Y Y A Y Q S@T@+ + _ . . . . . . ",
". [.>+z A z X.L+. . . . . . . . . . _ _ + _ . . _ W X z A A Y._ _ _ _ N U@$+Q Q A H S+G._ _ _ _ . . . . . . . . . _ $ + _+u.A Y Q Q ..V@W@3 _ X@X@'+Y@Q Q Y A 7+S.S.S.S.S.Z@Z@A A A A A Y Y 6.[+<+3 _ . . . . . . ",
". [.>+z z z R , . . . . . . . . . . . . . . . . _ W X z A z ,+. . . . . N p+G U A A 1.c.> + + _ . . . . . . . . . _ $ + s.m.Y Y A 5.`@0.+ _ . . _ -@v+A A A A 7+S.Z@Z@Z@Z@Z@Z@Z@z z A A Y 7+A P+ #3 _ . . . . . . ",
". [.>+z z z R , . . . . . . . . . . . . . . . . _ W X z A z ,+. . . . _ + ) g 9.Q A A .#0 + + _ . . . . . . . . . _ + $ +#@#A Y Q u _++ + _ . . M ##z A A z m.t@I+I+I+I+I+I+I+I+I+I+I+s A A A 1.$#3 >.. . . . . . ",
". [.>+z z z R , . . . . . . . . . . . . . . . . _ W X z A z ,+. . . . . + + %#&#Q A A :.6 8.+ _ . . . . . . . . . . _ % -@y A Q N.*#+ + + _ . . =#-#A Y A |+;#>#)@)@)@)@)@)@)@)@)@)@o@,#|.A Y A '#= _ . . . . . . ",
". [.>+z z z R , . . . . . . . . . . . . . . . . _ W X z A z ,+. . . . _ _ + % / R+A A A _@)#+ _ _ _ _ . . . _ _ _ _ _ !#~#A A {#]#N _ + _ _ _ + ~ ;.Y A g+J.& 3 _ _ _ _ _ _ _ _ _ _ _ ).^#A A A I o@3 _ _ _ . . . ",
". [.>+z z z R , . . . . . . . . . . . . . . . . _ W X z A z ,+. . . . _ _ + + )./#A A Y A (#V._ _ _ _ . . . _ + + + E+_#z Y Q Z 2+_ _ _ _ + + S R 5.Y A I+=.+ _ . . . . . . . . . . _ N 2...Q Y H :#& + _ _ . . . ",
". [.>+z z z R , . . . . . . . . . . . . . . . . _ W X z A z ,+. . . . _ _ + + + <#t@A A A o #++ _ _ _ . . . _ + + M ,+m A A Q [#5@_ . . _ + + %.}#C.A A J ,@+ + _ . . . . . . . . . _ + |#1#Q A Y 2#F+_ + _ . . . ",
". [.>+z z z R , . . . . . . . . . . . . . . . . _ W X z A z ,+. . . . _ _ + + + 1@H.H A A Q 3#'+_ _ _ _ . . _ + + T@u@Y Y A Q  .4#X@. . _ + N {+5#6#S.;.K % + + _ . . . . . 7#7#7#. _ + ' ].5.A Y X 8#+ _ + _ . . ",
". [.>+A A z 9#0#L.L.L.L.L.L.L.L.L.L.L.L.A._ . . _ W X z A 5.,+. . . . . _ _ _ _ + u+:+Q A A x.l@% _ 3 _ . . _ _ 8.3.H A A A ..w@N X@. . _ + a#O@Q 7+A 6@%#3 _ _ _ . . . . . 7#7#7#. _ _ + b#R+A A A b &++ + _ . . ",
". [.>+A A A c#k@`+`+`+`+`+`+`+d#d#d#w.w.U+A._ . _ W X z A ^.Y.. . . . . . . . _ + ' 3.6.A A A 2#E@3 3 _ . . _ + 0./.A A A A s e#+ _ . . . + f#}.A Y Q g#, >._ _ . . . . . . . 7#. . _ + + E+^@A A A _@o@+ 3 . . . ",
". [.>+A A A A A A A A A A A A A A A A A l+e _ . _ W X z A ^.Y.. . . . . . . . _ + % L h#A Y A q+6 , 3 _ . . _ + -@G Q A A A i#5@+ _ . . _ , j#A A Y |.! _ . . . . . . . . . . . . . _ + + N s+q+Y A :.k#j@3 _ . . ",
". [.W.A A A A A A A A A A A A A A A A A Y+e _ . _ W X z A ^.Y.. . . . . . . . _ + + N d.4+A A A I | 3 >.. . _ % l#l Q A A r @.N + _ . . _ %#[@A A Y O@a#_ . . . . . . . . . . . . . _ + + % T+H@A A Y 0@k+3 >.. . ",
". j -.Q A A A z z z z z z z z z z z A A Y+,@>.. _ W X A Q ^.Y._ _ _ . . . . . . _ _ + 5@A@A Y Q Q q.[.>.. . _ + m#_.5.A q+3@n#_ _ _ . . _ l@o#Y A H c N _ . . . . . . . . . . . . . _ + + _ x+U+5.Q Q {# +3 >.. . ",
". F+p#q#4.b@b@b@b@b@b@b@b@b@b@^#^#^#/+/+*+* _ . _  @r#/+b@4.#+% + _ . . . . . . . _ _ + m#l.q#Y+4.Y@-@+ . . _ + A.s#u@k@:@+#_ _ . . . . = Q@4./+/+X.t#+ _ . . . . . . . . . . . . . . _ _ _ _ u+3#q#q#4.P.8._ . . ",
". % F.; ; F.F.F.F.F.F.F.F.F.F.F.F.u#^+^+V.+ _ . _ M ; u#v#L.= + _ _ . . . . . . . . . _ % ; ; ; ; ; ) _ . . _ + + S V+w#' 3 . . . . . . _ A.^+v#u#x#% + _ . . . . . . . . . . . . . . . . . _ N ; L.L.; S + . . . ",
". + + + _ _ _ X@X@X@X@X@X@X@X@_ _ _ % + + + _ . _ + + 3 3 - + + + _ . . . . . . . . . _ + % + + % + + _ . . _ % % + 3 3 + + _ . . . . . _ + 3 3 3 3 - + _ . . . . . . . . . . . . . . . . . _ + + + % + + + _ . . ",
". 3 _ + 3 3 + X@y#y#y#y#y#y#$ + + + + + _ _ _ _ _ + + + + + + + + _ . . _ _ _ _ _ _ _ _ + + + + + + + _ . . _ + + + + + + _ _ _ _ _ _ _ _ + + 3 3 _ + + _ _ _ _ 7#. . . _ _ _ _ _ _ _ _ . . _ + + + + _ + _ _ . . ",
". 3 @ 3 3 3 - _ _ _ _ _ X@+ + + + + _ . _ _ _ + + + + + + + + + + _ . . _ + + + + + + + + + + _ _ + _ _ . . _ + + _ + + + + + + + + + + + _ + + + + + + + + + y#_ . . _ + + + + _ + _ _ . . _ + + _ _ . _ . . . . ",
") z#= ' , 8.8.M M & & & & & & N N N N N N N N N N N & & N N M M M , M N & M + . . . . . . . . . . . . . . . . . . . . . . . . . . . . . . . . . . . . . . . . . . . . . . . . . . . . . . . . . . ' n#5@L.; F.A.V.",
"z#= = ' , 8.M & & & N N . + _ % . _ + + _ _ _ . . . . . . . . . . . . . . . . . . . . . . . . . . . . . . . . . . . . . . . . . . . . . . . . . . . . . . . . . . . . . . . . . . . . . . . . . . . . F.F.A.V.S ) ",
"z#= ' , 8.M & & & N N + . . . . . . . . . . . . . . . . . . . . . . . . . . . . . . . . . . . . . . . . . . . . . . . . . . . . . . . . . . . . . . . . . . . . . . . . . . . . . . . . . . . . . . . . 8.S ) z#z#",
"z#= ' 8.M M + . . . . . . . . . . . . . . . . . . . . . . . . . . . . . . . . . . . . . . . . . . . . . . . . . . . . . . . . . . . . . . . . . . . . . . . . . . . . . . . . . . . . . . . . . . . . . . M = = = ",
"z#= _ . . _ . . . . . . . . . . . . . . . . . . . . . . . . . . . . . . . . . . . . . . . . . . . . . . . . . . . . . . . . . . . . . . . . . . . . . . . . . . . . . . . . . . . . . . . . . . . . . . . . & ' , ",
"z#= . M % + . . . . . . . . . . . . . . . . . . . . . . . . . . . . . . . . . . . . . . . . . . . . . . . . . . . . . . . . . . . . . . . . . . . . . . . . . . . . . . . . . . . . . . . . . . . . . . . . . , 8.",
") = . , 8._ . . . . . . . . . . . . . . . . . . . . . . . . . . . . . . . . . . . . . . . . . . . . . . . . . . . . . . . . . . . . . . . . . . . . . . . . . . . . . . . . . . . . . . . . . . . . . . . . . M 8.",
") z#. . . . . . . . . . . . . . . . . . . . . . . . . . . . . . . . . . . . . . . . . . . . . . . . . . . . . . . . . . . . . . . . . . . . . . . . . . . . . . . . . . . . . . . . . . . . . . . . . . . . . % M ",
"S ) % . . . . . . . . . . . . . . . . . . . . . . . . . . . . . . . . . . . . . . . . . . . . . . . . . . . . . . . . . . . . . . . . . . . . . . . . . . . . . . . . . . . . . . . . . . . . . . . . . . . . + M ",
"A.S z#N . . . . . . . . . . . . . . . . . . . . . . . . . . . . . . . . . . . . . . . . . . . . . . . . . . . . . . . . . . . . . . . . . . . . . . . . . . . . . . . . . . . . . . . . . . . . . . . . . . . N M ",
"F.A.S . . . . . . . . . . . . . . . . . . . . . . . . . . . . . . . . . . . . . . . . . . . . . . . . . . . . . . . . . . . . . . . . . . . . . . . . . . . . . . . . . . . . . . . . . . . . . . . . . . . . M M ",
"L.; A.. . . . . . . . . . . . . . . . . . . . . . . . . . . . . . . . . . . . . . . . . . . . . . . . . . . . . . . . . . . . . . . . . . . . . . . . . . . . . . . . . . . . . . . . . . . . . . . . . . . N M M ",
"E+'+L.. . . . . . . . . . . . . . . . . . . . . . . . . . . . . . . . . . . . . . . . . . . . . . . . . . . . . . . . . . . . . . . . . . . . . . . . . . . . . . . . . . . . . . . . . . . . . . . . . . % 8.M M "};
